<svg width="93" height="92" viewBox="0 0 93 92" fill="none" xmlns="http://www.w3.org/2000/svg">
<g id="Group">
<g id="Group_2">
<path id="Vector" d="M91.4638 53.6998C92.0967 48.2998 92.5715 44.5998 91.4638 38.3998C90.3561 32.1998 87.5077 28.1998 81.9693 28.1998C76.4308 28.1998 74.8484 31.6998 74.3737 36.3998C73.8989 41.1998 73.7407 52.8998 73.266 57.9998C72.7912 63.1998 68.3605 63.8998 60.2901 63.8998C60.1319 61.0998 60.9231 52.7998 59.0242 42.5998C57.1253 32.3998 54.7517 24.8998 54.4352 14.2998C54.1187 3.59976 47.789 0.59976 45.2572 0.59976C42.7253 0.59976 35.1297 -0.50024 34.022 9.09976C32.9143 18.7998 30.6989 27.7998 29.5912 43.4998C16.7737 43.8998 16.7737 40.7998 16.4572 35.8998C16.1407 30.9998 16.4572 20.1998 16.4572 20.1998C16.6154 13.2998 12.1846 11.0998 6.80442 10.3998C1.4242 9.79976 0.632996 11.4998 0.632996 15.5998C0.632996 19.6998 1.26596 32.6998 1.89893 41.5998C2.5319 50.4998 6.96267 53.3998 11.8682 54.7998C16.7737 56.1998 30.2242 53.8998 30.2242 53.8998C30.2242 53.8998 31.4901 81.4998 32.1231 89.0998C28.9583 89.0998 25.9517 89.0998 22.7868 89.1998C17.2484 89.2998 11.7099 89.3998 6.01322 89.4998C5.22201 89.4998 4.27256 89.4998 3.48135 89.7998C2.5319 90.0998 2.84838 91.1998 3.95607 91.1998C27.3759 91.6998 50.7956 92.2998 74.2154 91.6998C76.1143 91.6998 78.1715 91.4998 79.7539 90.8998C80.3868 90.6998 80.0704 89.8998 79.4374 89.8998C73.8989 89.6998 68.2022 89.5998 62.6638 89.3998C62.3473 87.5998 61.7143 83.8997 61.0813 78.6998C75.0066 76.5998 85.6088 73.7998 89.2484 71.1998C93.0462 68.6998 90.8308 58.9998 91.4638 53.6998ZM13.7671 16.0998C15.5077 19.6998 15.033 23.9998 14.8748 33.3998C14.7165 42.3998 17.8813 43.4998 19.3055 43.8998C21.2044 44.4998 22.9451 44.5998 25.3187 44.7998C25.6352 44.7998 25.9517 44.9998 26.1099 45.1998C22.7868 45.1998 19.1473 45.5998 17.2484 43.5998C15.666 41.8998 15.1912 39.7998 14.7165 37.8998C13.9253 34.6998 13.6088 31.5998 13.2923 28.3998C12.9759 25.3998 12.8176 22.3998 12.6594 19.3998C12.6594 17.8998 12.3429 16.2998 11.7099 14.7998C11.2352 13.8998 10.444 12.9998 9.81102 12.1998C11.077 12.3998 12.5011 13.4998 13.7671 16.0998ZM8.54508 12.1998C8.70333 12.1998 8.70333 12.0998 8.86157 12.0998C10.2857 13.8998 11.3934 15.4998 11.8682 17.6998C12.1846 19.4998 12.0264 21.3998 12.1846 23.2998C12.3429 26.7998 12.8176 30.2998 13.2923 33.7998C13.7671 36.7998 13.9253 40.3998 16.1407 43.1998C18.3561 45.9998 21.8374 45.7998 26.2682 45.7998L26.1099 45.8998C25.477 46.1998 24.6857 46.4998 24.0528 46.6998C20.4132 46.4998 17.2484 45.9998 15.3495 43.5998C14.2418 42.2998 13.6088 40.6998 13.2923 39.1998C12.3429 36.1998 11.7099 33.1998 11.7099 30.2998C11.3934 24.6998 12.6594 17.7998 7.91212 12.6998C8.07036 12.4998 8.2286 12.2998 8.54508 12.1998ZM14.4 46.3998C9.17805 43.8998 10.1275 36.3998 9.49453 31.1998C9.01981 25.9998 8.70333 19.0998 8.86157 16.6998C8.86157 16.0998 8.86157 15.5998 8.70333 15.0998C12.3429 21.1998 9.33629 28.5998 10.9187 34.7998C11.5517 37.7998 12.1846 40.8998 14.0835 43.6998C15.8242 45.9998 18.5143 46.6998 21.8374 46.9998C19.622 47.5998 16.9319 47.5998 14.4 46.3998ZM54.9099 38.8998C56.0176 45.3998 55.8594 56.2998 56.6506 62.1998C57.2835 68.0998 59.6572 79.1998 60.2901 84.4998C60.6066 87.4998 60.7649 88.7998 59.8154 89.3998C58.3912 84.7998 57.7583 79.9998 56.9671 75.2998C56.1759 70.3998 55.7011 65.3998 55.0682 60.4998C54.4352 55.7998 53.8022 51.0998 53.4857 46.3998C53.3275 44.6998 53.4857 42.9998 53.4857 41.2998C53.4857 38.8998 52.8528 36.5998 52.6945 34.1998C52.3781 30.0998 51.9033 25.9998 51.4286 21.8998C51.1121 17.8998 51.1121 13.7998 50.7956 9.79976C51.4286 12.4998 51.9033 15.7998 51.9033 18.2998C52.0616 23.7998 53.8022 32.3998 54.9099 38.8998ZM55.5429 86.2998C55.0682 83.7998 54.277 81.2998 54.1187 78.6998C53.8022 74.9998 53.644 71.3997 53.3275 67.6998C53.011 64.1998 52.6945 60.6998 52.3781 57.1998C51.5868 47.9998 50.7956 38.6998 50.1627 29.4998C49.6879 21.1998 48.7385 12.8998 48.7385 4.69976C49.055 4.89976 49.2132 5.29976 49.5297 5.69976C50.0044 10.2998 49.8462 14.8998 50.3209 19.4998C50.7956 23.4998 51.4286 27.4998 51.5868 31.4998C51.7451 35.7998 52.6945 39.9998 52.5363 44.1998C52.3781 49.0998 53.4857 54.0998 53.9605 58.9998C54.5934 64.1998 55.0682 69.3998 56.0176 74.5998C56.8088 79.4998 57.4418 84.5998 59.0242 89.4998C58.233 89.4998 57.2836 89.4998 56.4923 89.3998C55.7011 88.4998 55.7011 87.3998 55.5429 86.2998ZM47.789 4.39976C47.789 7.49976 48.1055 10.6998 48.2638 13.7998C48.5803 17.7998 48.422 21.7998 48.7385 25.7998C49.2132 30.3998 49.5297 34.8998 49.8462 39.4998C50.6374 48.4998 51.2704 57.4998 52.0616 66.4998C52.3781 70.5998 52.6945 74.6998 52.8528 78.7998C53.011 81.1998 53.644 83.3998 54.1187 85.7998C54.4352 86.7998 54.1187 88.5998 54.7517 89.4998C54.4352 89.4998 53.9605 89.4998 53.4857 89.4998C53.011 87.4998 52.5363 85.4998 52.0616 83.5998C51.4286 80.8998 51.9033 78.2998 51.5868 75.5998C51.1121 72.2998 50.1627 69.0998 50.1627 65.7998C50.1627 61.9998 50.4792 57.9998 49.8462 54.1998C48.5803 46.4998 48.7385 38.8998 48.1055 31.1998C47.3143 23.1998 47.1561 15.1998 46.9978 7.19976C47.1561 5.59976 47.3143 4.69976 47.3143 4.69976C47.4726 4.49976 47.6308 4.39976 47.789 4.39976ZM46.3649 13.7998C46.5231 18.4998 46.6814 23.0998 46.9978 27.7998C47.4726 35.6998 47.4726 43.6998 48.5803 51.5998C49.2132 55.7998 49.3715 59.8998 49.3715 64.0998C49.3715 67.3998 50.0044 70.6998 50.6374 73.9998C51.1121 76.4998 50.7956 79.0998 51.1121 81.5998C51.4286 84.1998 52.2198 86.7998 52.8528 89.2998C52.5363 89.2998 52.2198 89.2998 51.9033 89.2998C51.1121 88.8998 50.9539 88.2998 50.7956 87.6998C50.6374 86.4998 45.8901 50.0998 45.4154 35.3998C45.0989 27.7998 45.7319 19.7998 46.3649 13.7998ZM84.3429 61.0998C83.7099 55.6998 84.6594 48.6998 85.1341 42.5998C85.6088 36.3998 84.6594 34.1998 83.3934 31.9998C83.077 31.4998 82.6022 31.0998 82.444 30.6998C83.8682 31.4998 84.9759 32.6998 85.6088 34.1998C86.2418 35.7998 86.2418 37.4998 86.2418 39.0998L85.7671 71.1998C85.6088 71.1998 85.4506 71.2998 85.4506 71.2998C85.4506 71.2998 84.9759 66.4998 84.3429 61.0998ZM86.7165 70.7998L87.1912 38.9998C87.1912 37.3998 87.1912 35.5998 86.5583 33.9998C85.9253 32.2998 84.5011 30.7998 82.6022 29.8998C82.7605 29.7998 82.7605 29.7998 82.9187 29.7998C83.077 29.6998 83.2352 29.6998 83.5517 29.6998C85.6088 31.0998 87.033 33.0998 87.8242 35.2998C88.6154 37.8998 88.2989 40.5998 88.1407 43.0998V43.6998C87.3495 52.3998 87.3495 61.1998 88.2989 69.8998C87.5077 70.2998 87.033 70.5998 86.7165 70.7998ZM89.7231 48.2998C89.4066 54.2998 89.2484 59.6998 89.7231 65.1998C89.8814 66.7998 89.5649 67.9998 88.9319 68.8998C88.1407 60.5998 88.1407 52.0998 88.7737 43.7998V43.1998C89.0901 40.5998 89.2484 37.7998 88.4572 35.1998C87.8242 33.2998 86.7165 31.5998 85.2923 30.1998C86.5583 30.7998 87.666 31.9998 88.4572 33.8998C89.7231 37.1998 90.0396 42.2998 89.7231 48.2998Z" fill="black"/>
</g>
</g>
</svg>
