<svg width="156" height="44" viewBox="0 0 156 44" fill="none" xmlns="http://www.w3.org/2000/svg">
<g id="Group">
<g id="Group_2">
<path id="Vector" d="M50.4594 0.799805V2.59981H37.3253V8.89981H47.611V10.6998H37.3253V18.6998H33.844V0.799805H50.4594Z" fill="black"/>
<path id="Vector_2" d="M59.4791 4.6L54.5736 3.9L55.5231 2.2L60.2703 3.4L59.9538 0H62.8022L62.4857 3.4L67.0747 2.2L68.0242 3.9L63.1187 4.6L66.4418 7.4L64.2264 8.4L61.2198 5.4L58.3714 8.4L55.9978 7.4L59.4791 4.6Z" fill="black"/>
<path id="Vector_3" d="M71.3473 9.9V9.7C71.3473 4.4 76.8857 0.5 84.7978 0.5C90.6527 0.5 95.7165 2.5 96.3494 6.4H92.8681C92.0769 3.7 89.7033 2.3 84.7978 2.3C78.9429 2.3 74.9868 5.2 74.9868 9.7V9.9C74.9868 14.5 78.6264 17.2 84.7978 17.2C89.3868 17.2 92.7099 15.7 93.3429 12.8H96.5077C95.5582 16.9 90.9692 19 84.6396 19C76.411 18.9 71.3473 15.4 71.3473 9.9Z" fill="black"/>
<path id="Vector_4" d="M105.844 0.800194V9.4002L118.187 0.700195H121.985L109.325 9.4002L122.618 18.6002H118.503L105.844 9.80019V18.6002H102.363V0.800194H105.844Z" fill="black"/>
<path id="Vector_5" d="M8.52527 25.8999C13.9055 25.8999 18.4945 27.3999 18.4945 31.0999V31.1999C18.4945 34.9999 13.9055 36.4999 8.52527 36.4999H3.93627V43.7999H0.454956V25.8999H8.52527ZM15.0132 31.1999V31.0999C15.0132 28.5999 12.6396 27.5999 8.84175 27.5999H3.93627V34.6999H8.84175C12.7978 34.7999 15.0132 33.4999 15.0132 31.1999Z" fill="black"/>
<path id="Vector_6" d="M27.5143 25.8999V41.9999H40.4901V43.7999H24.033V25.8999H27.5143Z" fill="black"/>
<path id="Vector_7" d="M57.8967 25.8999L67.5495 43.7999H64.0681L61.2198 38.5999H49.5099L46.8198 43.7999H43.4967L53.3077 25.8999H57.8967ZM60.4286 36.8999L55.5231 27.6999L50.6176 36.8999H60.4286Z" fill="black"/>
<path id="Vector_8" d="M70.8725 38.3001H74.1956C74.6703 40.4001 76.0945 42.2001 81.7912 42.2001C85.4308 42.2001 88.2791 40.8001 88.2791 38.8001C88.2791 36.8001 86.8549 35.9001 81.3165 35.4001C75.3033 34.8001 71.822 33.7001 71.822 30.5001C71.822 27.8001 75.6198 25.6001 81 25.6001C86.6967 25.6001 90.178 27.3001 90.811 30.5001H87.6462C87.0132 28.2001 84.956 27.3001 81 27.3001C77.044 27.3001 75.1451 28.5001 75.1451 30.2001C75.1451 31.9001 76.2528 32.9001 81.9495 33.4001C88.2791 34.0001 91.6022 35.3001 91.6022 38.6001C91.6022 41.6001 87.4879 43.9001 81.7912 43.9001C74.0374 44.0001 71.3473 41.4001 70.8725 38.3001Z" fill="black"/>
<path id="Vector_9" d="M94.4506 27.5998V25.7998H114.547V27.5998H106.319V43.7998H102.837V27.5998H94.4506Z" fill="black"/>
<path id="Vector_10" d="M123.409 25.8999V43.7999H119.927V25.8999H123.409Z" fill="black"/>
<path id="Vector_11" d="M129.897 34.9V34.7C129.897 29.4 135.435 25.5 143.347 25.5C149.202 25.5 154.266 27.5 154.899 31.4H151.418C150.626 28.7 148.253 27.3 143.347 27.3C137.492 27.3 133.536 30.2 133.536 34.7V34.9C133.536 39.5 137.176 42.2 143.347 42.2C147.936 42.2 151.259 40.7 151.892 37.8H155.057C154.108 41.9 149.519 44 143.189 44C134.96 44 129.897 40.5 129.897 34.9Z" fill="black"/>
</g>
</g>
</svg>
