<svg width="67" height="106" viewBox="0 0 67 106" fill="none" xmlns="http://www.w3.org/2000/svg">
<g id="Group">
<g id="Group_2">
<path id="Vector" d="M54.433 105.2C46.9956 105.2 21.6769 104 19.778 103.5C19.6198 103.2 19.4615 102.9 19.4615 102.6C19.4615 102.6 18.3539 100.2 18.1956 99.6997L17.4044 97.9997C16.9297 96.9997 16.4549 95.8997 15.9802 94.8997C15.6637 94.1997 15.3473 93.5997 15.0308 92.8997C14.8725 92.5997 14.3978 91.5997 14.3978 91.5997C14.2395 91.1997 14.0813 90.7997 13.7648 90.3997C13.4483 89.6997 13.1318 89.0997 12.8154 88.3997C12.1824 87.0997 11.7077 85.7997 11.0747 84.4997C10.4418 83.1997 9.80879 81.7997 9.33407 80.3997C9.01758 79.5997 8.70109 78.7997 8.38461 77.8997C8.06812 77.1997 7.75163 76.4997 7.43515 75.8997C7.27691 75.4997 6.96043 75.0997 6.80219 74.5997C5.37801 71.5997 4.1121 68.4997 3.16265 65.3997C2.68792 63.6997 2.37143 62.0997 2.21319 60.4997C2.21319 59.5997 2.21318 58.6997 2.05494 57.7997V57.5997C2.05494 56.4997 2.05493 55.2997 1.89669 54.1997C1.73845 51.9997 1.73847 50.0997 1.58023 48.2997C1.58023 47.6997 1.42198 46.9997 1.42198 46.3997C1.42198 45.9997 1.26373 45.4997 1.26373 45.0997C1.26373 44.3997 1.10548 43.7997 1.10548 43.0997L0.947227 41.0997C0.788985 39.9997 0.789014 38.7997 0.630773 37.6997C0.472531 35.3997 0.472512 33.2997 0.31427 31.3997C0.31427 29.9997 0.31427 28.3997 0.31427 26.5997C0.31427 25.6997 0.472521 24.7997 0.472521 23.8997C0.472521 23.3997 0.630773 22.8997 0.630773 22.3997C0.630773 22.0997 0.630773 21.8997 0.630773 21.5997C0.630773 21.1997 0.630773 20.9997 0.630773 20.6997C0.630773 20.4997 0.630773 20.2997 0.630773 20.0997C0.630773 19.8997 0.630773 19.7997 0.630773 19.5997C0.789014 18.8997 0.788985 18.0997 0.947227 17.3997C1.10547 16.3997 1.26371 15.6997 1.73844 14.9997C2.21316 14.3997 2.68789 14.0997 3.32085 13.8997C3.79558 13.7997 4.27034 13.6997 4.74507 13.6997C5.37803 13.6997 6.01096 13.7997 6.48569 14.0997C7.59338 14.5997 8.22637 15.2997 8.54286 16.1997L8.70111 16.7997C8.85935 17.2997 9.01757 17.7997 9.17581 18.2997C9.33406 19.3997 9.49232 20.2997 9.49232 21.1997C9.49232 21.9997 9.65053 22.7997 9.80877 23.4997C9.80877 23.7997 9.96702 23.9997 9.96702 24.2997C9.96702 24.7997 10.1253 25.2997 10.1253 25.6997C10.2835 26.2997 10.2835 26.9997 10.4417 27.5997C10.6 28.5997 10.7583 29.4997 11.0747 30.4997L11.3912 31.8997C11.5494 32.6997 11.7077 33.5997 11.8659 34.3997C12.1824 35.4997 12.3406 36.5997 12.8154 37.9997C12.8154 38.0997 12.8154 38.1997 12.6572 38.3997C12.0242 39.1997 11.5494 40.0997 11.3912 40.9997C11.2329 42.0997 11.2329 43.1997 11.3912 44.3997V44.9997C11.3912 45.6997 11.5494 46.3997 11.7077 47.0997C11.8659 47.8997 12.1824 48.7997 12.3406 49.5997C12.4989 50.3997 12.6571 51.0997 12.9736 51.7997C13.2901 53.3997 13.9231 54.9997 14.556 56.4997C14.7143 57.0997 15.0307 57.5997 15.189 58.1997C15.5055 59.2997 15.9802 60.1997 16.2967 61.0997C16.4549 61.5997 16.7714 61.9997 17.0879 62.3997C17.2461 62.4997 17.2462 62.6997 17.4044 62.7997C17.8791 63.5997 18.5121 64.4997 19.4615 65.2997C20.5692 66.1997 21.9934 66.7997 23.5758 66.9997C23.8923 66.9997 24.2088 67.0997 24.6835 67.0997C25.4747 67.0997 26.4242 66.9997 27.2154 66.6997C28.1648 66.3997 28.956 66.0997 29.9055 65.7997C30.0637 65.6997 30.0637 65.6997 30.2219 65.6997H30.3802C31.1714 65.8997 31.9626 66.0997 33.0703 66.1997C33.3868 66.1997 33.545 66.1997 33.8615 66.1997C35.4439 66.1997 36.7099 65.8997 38.134 65.1997C39.7164 64.3997 40.8241 63.3997 41.2989 61.9997C41.4571 61.6997 41.4571 61.3997 41.6154 61.0997C41.7736 60.6997 41.9318 60.2997 42.0901 59.9997C42.0901 59.8997 42.0901 59.8997 42.0901 59.7997C42.2483 59.9997 42.5648 60.1997 42.7231 60.3997C43.1978 60.7997 43.5143 61.1997 43.989 61.4997C44.622 62.1997 45.2549 62.7997 45.5714 63.4997C45.8879 64.0997 46.5209 64.5997 47.1538 65.0997C47.3121 65.1997 47.4703 65.3997 47.6285 65.4997C48.1033 65.8997 48.578 66.2997 49.2109 66.6997L49.3692 66.7997C49.3692 66.7997 51.4264 67.7997 52.2176 68.1997C52.3758 68.2997 52.534 68.3997 52.8505 68.3997H53.0088C53.167 68.3997 53.4835 68.3997 53.6417 68.2997C53.8 68.1997 53.8 68.0997 53.8 67.9997C53.8 67.8997 53.6417 67.6997 53.4835 67.5997L52.8505 67.2997C52.2176 66.9997 51.7428 66.6997 51.1099 66.3997C50.4769 66.0997 49.8439 65.7997 49.3692 65.3997L48.8945 64.8997C48.4198 64.4997 47.945 64.0997 47.4703 63.6997C47.3121 63.5997 47.3121 63.4997 47.1538 63.2997C47.1538 63.1997 46.9956 63.0997 46.9956 63.0997L46.5209 62.5997C46.2044 62.0997 45.7296 61.5997 45.2549 61.1997C44.9384 60.8997 44.622 60.5997 44.3055 60.2997C43.989 60.0997 43.8308 59.7997 43.5143 59.5997C42.8813 58.9997 42.4066 58.4997 41.9319 57.8997C40.9824 56.5997 39.4 55.5997 37.0264 55.0997C34.3363 54.3997 31.4879 53.6997 28.7978 52.6997C27.8483 52.2997 27.2154 51.9997 26.5824 51.6997C24.2088 50.3997 22.4681 49.0997 21.0439 47.6997C20.5692 47.1997 20.0945 46.5997 19.778 45.8997C19.6198 45.4997 19.6197 45.0997 19.9362 44.4997C20.2527 43.9997 20.5692 43.3997 21.2022 42.8997L21.3604 42.9997C21.6769 43.1997 22.1516 43.2997 22.4681 43.4997C24.2088 44.3997 26.2659 45.0997 28.0066 45.6997C28.956 45.9997 29.9055 46.2997 31.0132 46.5997C31.4879 46.6997 31.9626 46.7997 32.2791 46.7997C32.4374 46.7997 32.7538 46.8997 32.9121 46.8997C33.0703 46.8997 33.0703 46.8997 33.2286 46.8997C33.7033 46.8997 34.0198 46.6997 34.0198 46.4997C34.3363 45.7997 34.6527 45.0997 34.9692 44.3997C34.9692 44.2997 35.1274 44.1997 35.1274 44.0997C36.3934 44.2997 37.6593 44.3997 38.9252 44.4997C39.7164 44.4997 41.4571 44.5997 41.4571 44.5997C42.4066 44.5997 43.5143 44.6997 44.6219 44.6997C46.0461 44.7997 47.312 45.0997 48.4197 45.7997C49.6857 46.4997 50.6351 47.3997 51.7428 48.4997C52.0593 48.7997 52.2175 49.0997 52.534 49.2997C53.0088 49.7997 53.4835 50.2997 53.9582 50.7997C54.5912 51.3997 55.2242 52.0997 56.0154 52.5997C56.4901 52.9997 56.9648 53.2997 57.5978 53.5997L57.756 53.6997C58.2308 53.9997 58.7055 54.2997 59.1802 54.4997C59.8132 54.7997 60.2879 55.1997 60.9209 55.6997L61.0791 55.7997C62.1868 56.6997 63.2945 57.5997 64.2439 58.5997C65.1934 59.5997 65.6681 60.5997 65.9846 61.4997C66.3011 62.4997 66.3011 63.4997 66.1428 64.4997V65.0997C66.1428 66.4997 65.8263 67.7997 65.3516 69.0997V69.2997C65.0351 69.9997 64.8769 70.7997 64.5604 71.5997C64.0857 72.5997 63.7692 73.4997 63.2945 74.4997C62.6615 75.7997 62.1868 76.9997 61.7121 78.1997C61.3956 78.8997 61.2374 79.5997 60.9209 80.2997C60.9209 80.2997 60.7626 80.8997 60.6044 81.1997L60.2879 82.2997C59.9714 83.1997 59.6549 84.0997 59.4967 84.8997C59.1802 85.7997 59.0219 86.7997 58.7054 87.6997L58.389 89.0997L58.0725 90.3997C57.756 91.2997 57.5978 92.0997 57.2813 92.9997C57.123 93.7997 56.9648 94.4997 56.8066 95.2997L56.6483 96.3997C56.6483 96.5997 56.6483 96.6997 56.4901 96.8997C56.3318 97.4997 56.1736 97.9997 56.1736 98.5997C56.1736 98.7997 56.1736 98.9997 56.0154 99.1997V99.2997C55.6989 100.7 55.5406 102.2 55.6989 104C55.6989 104.1 55.6989 104.2 55.6989 104.3C55.6989 105.1 55.3824 105.2 54.433 105.2Z" fill="black"/>
<path id="Vector_2" d="M57.756 52.2999C57.4396 52.0999 57.1231 51.7999 56.8066 51.5999C56.1736 51.0999 55.5406 50.3999 54.9077 49.6999C53.9582 48.5999 52.6923 47.4999 51.5846 46.4999C50.4769 45.4999 49.0528 44.7999 47.4703 44.4999C46.6791 44.2999 45.7296 44.1999 44.4637 44.0999V43.9999C44.4637 43.5999 44.4637 43.3999 44.4637 43.0999C44.6219 41.9999 44.4637 40.8999 44.1473 39.5999C43.989 38.7999 43.8307 38.0999 43.8307 37.3999C43.8307 35.2999 43.8308 32.9999 44.1473 30.3999C44.1473 29.9999 44.1473 29.5999 44.1473 29.0999C44.1473 28.8999 44.1473 28.5999 44.1473 28.3999C44.1473 27.9999 44.1473 27.6999 44.1473 27.2999C44.1473 27.2999 44.4637 19.7999 44.4637 19.1999C44.4637 18.5999 44.4637 17.8999 44.4637 17.2999C44.4637 15.9999 44.4637 14.5999 44.622 13.1999C44.7802 11.4999 44.9384 10.1999 45.4132 9.0999C45.4132 8.9999 45.4132 8.7999 45.5714 8.6999C45.5714 8.5999 45.5714 8.4999 45.5714 8.3999C45.7297 7.9999 45.7297 7.4999 45.8879 7.0999C46.2044 5.9999 46.3626 4.8999 46.8373 3.7999C46.9956 3.2999 47.3121 2.7999 47.6285 2.3999C48.2615 1.5999 49.3692 1.0999 50.7934 0.999902C51.1099 0.899902 51.4264 0.899902 51.9011 0.899902C52.0593 0.899902 52.2176 0.899902 52.2176 0.899902C53.167 0.899902 53.8 1.1999 54.2747 1.7999C54.5912 2.1999 54.9077 2.5999 55.2242 3.0999C56.1736 4.7999 56.1736 6.4999 56.3318 8.2999C56.3318 8.8999 56.3318 9.3999 56.3318 9.9999C56.3318 11.1999 56.3318 12.4999 56.3318 13.6999C56.3318 14.6999 56.4901 15.5999 56.6483 16.4999C56.6483 16.8999 56.8066 17.1999 56.8066 17.5999C56.8066 17.8999 56.8066 18.0999 56.9648 18.3999C56.9648 18.8999 57.123 19.3999 57.123 19.8999C57.2813 22.1999 57.4396 25.1999 57.5978 28.1999C57.5978 28.8999 57.5978 29.6999 57.5978 30.3999V30.4999C57.5978 31.0999 57.5978 31.6999 57.5978 32.2999C57.5978 32.8999 57.5978 33.4999 57.4395 34.0999C57.4395 34.4999 57.2813 34.8999 57.2813 35.2999C57.2813 35.8999 57.2813 36.3999 57.2813 36.9999C57.2813 37.3999 57.2813 37.7999 57.2813 38.1999C57.2813 38.6999 57.2813 39.1999 57.123 39.6999C57.123 40.2999 56.9648 40.9999 56.9648 41.6999V42.3999C56.9648 43.8999 56.8066 45.3999 56.9648 46.9999C56.9648 47.1999 56.9648 47.4999 56.9648 47.6999C56.9648 47.8999 56.9648 48.0999 56.9648 48.2999L57.756 52.2999Z" fill="black"/>
<path id="Vector_3" d="M25.1583 66.3999C24.367 66.3999 23.5758 66.2999 22.7846 66.0999C22.1517 65.9999 21.6769 65.6999 21.2022 65.2999C20.2528 64.5999 19.6198 63.6999 19.145 62.8999C18.3538 61.5999 17.5627 60.2999 17.2462 58.8999C16.9297 58.0999 16.6132 57.1999 16.455 56.4999C16.1385 55.5999 15.822 54.6999 15.5055 53.7999C15.3473 53.0999 15.189 52.4999 15.0308 51.7999C14.8726 51.3999 14.8725 51.0999 14.7143 50.6999C14.5561 50.2999 14.556 49.8999 14.3978 49.4999C14.2395 48.6999 13.9231 47.8999 13.7648 47.0999C13.2901 44.8999 13.2901 43.0999 13.6066 41.4999C13.7648 40.6999 13.9231 40.0999 14.3978 39.4999C14.8725 38.8999 15.5055 38.3999 16.455 38.0999C16.7714 37.9999 17.2461 37.9999 17.5626 37.8999C18.0374 37.8999 18.3539 37.8999 18.8286 37.8999C20.2528 37.8999 21.3604 37.9999 22.4681 38.3999C23.1011 38.5999 23.5758 38.7999 23.8923 39.0999C24.5253 39.5999 25.1582 40.0999 25.7912 40.6999C26.1077 40.9999 26.2659 41.2999 26.2659 41.5999C25.9494 41.4999 25.4747 41.4999 25.1583 41.4999C24.367 41.4999 23.5758 41.5999 22.7846 41.8999C21.044 42.4999 19.9363 43.3999 19.4615 44.6999C19.3033 45.0999 19.145 45.4999 19.145 45.8999C19.145 46.4999 19.3033 47.0999 19.6198 47.6999C20.2528 48.8999 21.5187 49.8999 22.7846 50.7999C24.0506 51.7999 25.4747 52.6999 27.0571 53.4999C27.2154 53.4999 27.2154 53.5999 27.2154 53.6999V53.7999C27.2154 54.6999 27.0571 55.6999 27.0571 56.5999C27.0571 57.1999 27.0571 57.8999 27.0571 58.4999V59.3999L21.6769 60.0999C21.2022 60.1999 20.7275 60.1999 20.2528 60.2999C19.6198 60.3999 19.3033 60.6999 19.4615 61.1999C19.778 61.9999 20.2527 62.6999 20.7275 63.3999C21.3604 64.1999 22.1517 64.7999 23.4176 65.3999C24.367 65.8999 25.4747 65.9999 26.4242 65.9999H26.7407C26.8989 65.9999 27.0571 65.9999 27.2154 65.9999C27.3736 65.9999 27.5319 65.9999 27.5319 65.9999C28.1649 65.9999 28.7978 65.7999 29.2726 65.6999L29.4308 65.7999C29.1143 65.8999 28.7978 65.9999 28.4813 66.0999C28.3231 66.0999 28.1648 66.1999 28.0066 66.1999C26.7407 66.2999 25.9495 66.3999 25.1583 66.3999Z" fill="black"/>
<path id="Vector_4" d="M42.5648 44.0998C41.9319 44.0998 41.4571 44.0998 40.8242 43.9998C38.4505 43.8998 36.2352 43.4998 34.0198 43.0998L33.7033 42.9998C32.2791 42.6998 31.0132 42.4998 29.589 42.1998L28.0066 41.8998C27.8483 41.4998 27.8483 41.2998 27.8483 40.9998C28.3231 39.7998 28.956 38.7998 29.7472 37.7998C30.3802 37.0998 31.1714 36.5998 32.4374 36.2998C33.5451 35.9998 34.6527 35.7998 35.9187 35.7998C37.0264 35.7998 38.1341 35.8998 39.4 36.1998C40.033 36.2998 40.5077 36.5998 40.9824 36.9998L41.1407 37.0998C41.9319 37.6998 42.2484 38.3998 42.4066 39.0998C42.5648 39.7998 42.7231 40.5998 42.8813 41.2998L43.0396 41.7998C43.0396 41.9998 43.0396 42.1998 43.0396 42.4998C43.0396 42.8998 43.0396 43.3998 43.0396 43.7998V44.0998H42.5648Z" fill="black"/>
<path id="Vector_5" d="M33.3868 65.7001C32.4374 65.7001 31.6462 65.5001 30.855 65.2001C29.4308 64.5001 28.4813 63.6001 28.3231 62.4001C28.1648 61.6001 28.1648 60.8001 28.1648 60.0001C28.1648 59.6001 28.1648 59.2001 28.1648 58.7001C28.1648 57.9001 28.1648 57.1001 28.3231 56.3001C28.3231 55.8001 28.4813 55.3001 28.4813 54.8001C28.4813 54.6001 28.4813 54.3001 28.4813 54.1001L28.6395 54.2001C29.2725 54.4001 29.9055 54.6001 30.3802 54.8001C32.5956 55.5001 34.4945 56.1001 36.3935 56.5001C37.1847 56.6001 38.2923 56.9001 39.0835 57.3001C39.5583 57.5001 39.8748 57.8001 40.033 58.0001C40.033 58.0001 40.5077 58.5001 40.666 58.6001C40.8242 58.8001 40.9825 59.0001 40.8242 59.3001C40.666 60.2001 40.3495 61.1001 39.8748 61.9001C39.7165 62.2001 39.5583 62.4001 39.4001 62.7001C39.2418 62.9001 39.0835 63.2001 38.9253 63.4001C38.6088 64.1001 37.6594 64.6001 36.7099 65.1001C35.9187 65.5001 34.811 65.6001 33.8616 65.7001C33.8616 65.7001 33.7033 65.7001 33.3868 65.7001ZM29.589 61.8001C29.589 62.0001 29.589 62.2001 29.589 62.4001V62.5001C29.589 62.9001 29.7473 63.2001 29.9055 63.6001C30.222 64.2001 31.0132 64.6001 31.8044 64.8001C32.2791 64.9001 32.5956 64.9001 32.9121 64.9001H33.8616C34.3363 64.9001 34.811 64.9001 35.444 64.8001C36.3934 64.7001 37.1847 64.3001 37.8176 63.6001C38.4506 62.9001 38.7671 62.1001 38.9253 61.3001C39.0835 60.6001 39.0836 59.9001 39.2418 59.3001C39.4 58.8001 39.0835 58.6001 38.2923 58.5001C35.7605 58.2001 33.2286 58.0001 30.6967 57.8001C30.5385 57.8001 30.5385 57.8001 30.3802 57.8001C29.589 57.8001 29.589 58.2001 29.4307 58.4001C29.2725 59.0001 29.2725 60.9001 29.2725 61.2001L29.589 61.8001Z" fill="black"/>
<path id="Vector_6" d="M33.2286 46.4C32.7538 46.3 32.4374 46.3 32.2791 46.2C31.1714 45.9 30.0637 45.6 28.956 45.1L28.1648 44.8C27.3736 44.5 26.5824 44.2 25.9495 44C25.1583 43.7 24.5253 43.4 23.7341 43L23.2593 42.8C23.7341 42.6 24.2088 42.5 24.6835 42.5H24.8418C25.4747 42.5 25.9495 42.6 26.5824 42.8C27.3736 43 28.1648 43.2 28.956 43.4L29.4307 43.5C30.6967 43.8 31.8044 44 33.0703 44.3L34.178 44.5L33.2286 46.4Z" fill="black"/>
<path id="Vector_7" d="M25.7912 64.6999C24.5253 64.6999 23.734 64.3999 23.1011 63.7999C22.3099 62.9999 21.3604 62.0999 20.8857 61.0999C21.2022 60.9999 21.5187 60.9999 21.6769 60.9999C23.1011 60.7999 24.5253 60.6999 25.9495 60.4999L26.5824 60.3999C26.5824 60.5999 26.5824 60.7999 26.5824 60.8999C26.5824 61.3999 26.7407 62.0999 26.7407 62.6999C26.7407 63.1999 27.0571 63.6999 27.5319 64.2999L27.6901 64.5999C27.3736 64.6999 27.2154 64.6999 26.8989 64.6999C26.5824 64.6999 26.2659 64.6999 25.9495 64.6999H25.7912Z" fill="black"/>
<path id="Vector_8" d="M33.8615 63.9C33.3868 63.9 32.9121 63.9 32.4374 63.8C31.8044 63.7 31.4879 63.4 31.4879 63C31.4879 62.6 31.4879 62.2 31.3297 61.8V61.4C31.3297 61 31.3297 60.6 31.3297 60.2V59C33.0703 59.1 36.5517 59.4 37.8176 59.6C37.8176 59.8 37.8176 60 37.6594 60.2L37.5011 60.8C37.5011 61.2 37.3429 61.5 37.3429 61.8C37.1846 62.3 37.0264 62.8 36.5517 63.2C36.0769 63.6 35.6022 63.9 34.6528 63.9C34.3363 63.9 34.0198 63.9 33.8615 63.9Z" fill="black"/>
</g>
</g>
</svg>
