<svg width="130" height="97" viewBox="0 0 130 97" fill="none" xmlns="http://www.w3.org/2000/svg">
<g id="Group">
<g id="Group_2">
<path id="Vector" d="M26.2945 27.3001C28.1934 26.6001 29.7758 25.8001 31.5165 25.2001C43.5428 20.2001 51.455 16.9001 67.7539 17.0001C83.4198 17.1001 91.4901 21.3001 99.2439 25.2001C100.51 25.9001 101.776 26.5001 103.042 27.1001C111.587 31.2001 120.448 32.5001 129.785 30.9001C117.283 10.3001 93.389 1.00013 84.2109 0.800133C76.4571 0.600133 69.6527 3.30013 64.9054 3.40013C60.1582 3.60013 55.2527 0.900133 47.6571 0.800133C40.0615 0.700133 26.1362 6.10013 17.2747 12.2001C9.36261 17.6001 1.76697 28.6001 0.0263062 30.9001C0.0263062 31.1001 11.578 33.3001 26.2945 27.3001ZM20.4395 13.8001C25.6615 9.80013 44.3341 -0.299866 59.8418 5.60013C60.3165 5.80013 60.4747 6.20013 60.1582 6.50013C59.8417 6.80013 59.2088 6.90014 58.7341 6.70013C44.4923 1.30013 27.0857 10.8001 22.0219 14.6001C21.8637 14.8001 21.5472 14.8001 21.2307 14.8001C21.0725 14.8001 20.756 14.7001 20.5977 14.6001C20.123 14.5001 20.123 14.1001 20.4395 13.8001Z" fill="black"/>
<path id="Vector_2" d="M81.2044 37.5002C80.8879 37.6002 80.5714 37.6002 80.2549 37.7002C80.2549 37.7002 77.4065 38.4002 75.9824 38.5002C73.767 38.9002 71.7098 39.2002 69.6527 39.4002C67.7538 39.6002 65.855 39.7002 63.7978 39.7002C60.1583 39.7002 56.2022 39.3002 50.9802 38.4002C50.189 38.3002 48.4483 37.9002 48.4483 37.9002C45.9165 37.4002 43.2263 36.8002 40.2198 36.1002C27.0857 32.9002 3.0329 33.3002 0.0263062 33.4002C9.04609 49.7002 26.9274 55.9002 36.4219 57.6002C41.1692 58.5002 48.2901 59.6002 57.6263 60.1002C54.4615 50.8002 42.4351 47.5002 42.2769 47.4002C41.8022 47.3002 41.4857 46.9002 41.644 46.5002C41.8022 46.2002 42.4351 46.0002 43.0681 46.1002C43.2263 46.1002 47.3406 47.3002 51.6132 50.1002C54.3033 51.6002 56.8351 53.5002 58.1011 55.7002C61.1076 61.3002 60.7912 63.4002 60.7912 69.4002C60.7912 80.9002 59.6834 84.6002 58.5758 87.9002C56.9933 93.0002 58.2593 96.7002 62.0571 96.7002C67.1208 96.7002 65.8549 91.6002 65.5384 89.1002C65.2219 86.6002 63.0065 84.6002 63.323 76.0002C63.4813 70.8002 63.323 65.8002 63.323 62.8002C63.323 61.5002 63.7977 59.3002 64.9054 57.1002C64.9054 57.1002 64.9054 57.1002 64.9054 57.0002C65.5384 55.5002 66.6461 54.1002 68.2286 53.2002C68.7033 52.9002 69.0198 52.7002 69.4945 52.5002C70.6022 52.0002 71.8681 51.7002 73.2923 51.7002C74.4 51.7002 75.5077 51.9002 76.4572 52.2002C77.7231 52.5002 78.9889 53.1002 79.9384 53.8002C81.3626 54.8002 82.3121 56.2002 82.945 57.7002C83.7362 59.2002 84.2109 60.8002 84.2109 61.9002C84.2109 65.2002 84.2109 71.5002 84.2109 71.5002C84.2109 71.5002 83.8945 74.6002 82.6285 77.7002C81.5208 80.6002 81.9956 84.2002 85.0022 84.2002C87.0593 84.2002 88.3252 82.4002 87.3758 79.0002C86.2681 75.2002 86.1099 74.5002 86.1099 71.4002C86.1099 68.3002 86.1099 62.8002 86.1099 62.8002C86.1099 62.8002 85.9516 61.4002 86.4264 59.5002C86.4264 59.4002 86.4264 59.3002 86.4264 59.2002C86.4264 58.9002 86.5846 58.6002 86.5846 58.4002C86.5846 58.2002 86.7429 58.0002 86.7429 57.8002C87.3758 56.1002 88.3252 54.2002 90.0659 52.6002C90.2242 52.5002 90.3824 52.3002 90.5406 52.2002C93.389 49.3002 96.7121 47.3002 97.0286 47.1002C97.5033 46.8002 98.1363 46.9002 98.611 47.1002C99.0857 47.4002 98.9275 47.8002 98.611 48.1002C98.4528 48.2002 90.6989 52.8002 88.9582 58.3002C90.6989 58.0002 92.4396 57.8002 94.3385 57.4002C119.341 53.0002 128.202 36.7002 129.785 33.2002C127.411 33.3002 113.011 33.9002 101.143 34.6002C93.389 35.1002 86.9011 36.4002 81.2044 37.5002Z" fill="black"/>
<path id="Vector_3" d="M63.956 36.2002H48.4484V36.5002C55.0945 37.8002 59.6835 38.3002 63.956 38.3002V36.2002Z" fill="black"/>
<path id="Vector_4" d="M69.3363 38.1002C72.6593 37.8002 76.2988 37.1002 80.2549 36.3002V36.2002H66.1714V38.3002C67.2791 38.2002 68.2286 38.2002 69.3363 38.1002Z" fill="black"/>
<path id="Vector_5" d="M73.2924 53.3003C71.8682 53.3003 70.7605 53.6003 69.811 54.3003C67.7539 55.7003 66.6462 58.1003 66.1714 60.3003C70.9187 60.3003 75.9824 60.0003 81.5209 59.4003C80.8879 57.7003 79.9385 56.0003 78.356 54.9003C76.9318 53.8003 75.3495 53.3003 73.2924 53.3003Z" fill="black"/>
<path id="Vector_6" d="M87.5342 24.3002C88.0089 24.7002 88.6418 25.0002 90.066 25.0002C91.9648 25.0002 93.7054 25.0002 94.9713 24.9002C94.3384 24.6002 93.8637 24.3002 93.2307 24.1002C93.2307 24.1002 93.2308 24.1002 93.0725 24.0002C91.9649 23.5002 91.0154 23.0002 89.9078 22.6002C89.5913 22.5002 89.433 22.4002 89.1166 22.3002C88.6418 22.1002 88.0089 21.9002 87.5342 21.7002V24.3002Z" fill="black"/>
<path id="Vector_7" d="M45.1252 21.5V25.2C46.0747 26.2 48.4484 27.6 54.778 27.6C61.2659 27.6 63.4813 26.7 64.2725 25.7V18.5C56.5187 18.6 50.8219 19.6 45.1252 21.5Z" fill="black"/>
<path id="Vector_8" d="M67.5956 18.3999C67.2791 18.3999 66.9627 18.3999 66.6462 18.3999V25.9999C67.5956 26.8999 70.1275 27.4999 75.8241 27.4999C82.1538 27.4999 84.5274 26.0999 85.4768 25.0999V20.8999C80.7296 19.3999 75.0329 18.3999 67.5956 18.3999Z" fill="black"/>
<path id="Vector_9" d="M35.9472 24.9001C37.2131 25.0001 38.7955 25.0001 40.6944 25.0001C41.9604 25.0001 42.5933 24.7001 43.0681 24.4001V22.1001C40.8527 23.0001 38.4791 23.9001 35.9472 24.9001Z" fill="black"/>
</g>
</g>
</svg>
