<svg width="127" height="64" viewBox="0 0 127 64" fill="none" xmlns="http://www.w3.org/2000/svg">
<g id="Group">
<g id="Group_2">
<path id="Vector" d="M20.334 0.799805H23.4988V15.6998H35.5253V17.2998H20.334V0.799805Z" fill="black"/>
<path id="Vector_2" d="M37.5824 9.1V8.9C37.5824 4.2 42.8044 0.5 50.4 0.5C58.1538 0.5 63.2177 4.2 63.2177 8.9V9.1C63.2177 13.8 58.1539 17.5 50.5583 17.5C42.8044 17.5 37.5824 13.7 37.5824 9.1ZM59.8945 9V8.8C59.8945 5.1 56.4132 2.1 50.4 2.1C44.3868 2.1 40.7472 4.9 40.7472 8.9V9.1C40.7472 13.1 45.0197 15.8 50.4 15.8C56.2549 15.8 59.8945 13.1 59.8945 9Z" fill="black"/>
<path id="Vector_3" d="M65.2748 0.799805H68.4396L76.1935 15.3998L83.9472 0.799805H86.9539L77.9341 17.2998H74.1363L65.2748 0.799805Z" fill="black"/>
<path id="Vector_4" d="M91.3846 0.799805H106.576V2.39981H94.5495V7.99981H104.202V9.5998H94.5495V15.5998H107.209V17.1998H91.2264V0.799805H91.3846Z" fill="black"/>
<path id="Vector_5" d="M0.553833 32.6C0.553833 27.1 7.51645 23 15.5868 23C23.9736 23 29.8285 26.6 29.8285 31.2C29.8285 35.4 26.0308 36.9 23.1824 36.9C20.3341 36.9 19.3846 36.1 19.0681 35C18.1186 36.2 15.9033 37.1 13.8461 37.1C10.3648 37.1 8.1495 35.6 8.1495 33.2C8.1495 30.2 11.3143 28 15.1121 28C17.6439 28 18.9099 28.8 19.3846 29.5L19.7011 28.2H22.7076L21.6 33.8C21.2835 35 21.9165 35.6 23.1824 35.6C25.2396 35.6 27.1385 34.3 27.1385 31.3C27.1385 27.3 22.8659 24.6 15.5868 24.6C8.4659 24.6 3.40226 27.8 3.40226 32.6C3.40226 36.7 7.35829 40.2 15.2704 40.2C19.0682 40.2 21.4417 39.6 23.4988 38.5H26.3473C24.4484 40.4 20.3341 41.8 15.2704 41.8C5.77588 41.7 0.553833 37.4 0.553833 32.6ZM19.0681 32C19.0681 30.3 17.6439 29.5 15.4286 29.5C13.2132 29.5 11.3143 30.8 11.3143 33.2C11.3143 34.8 12.7385 35.7 14.6374 35.7C16.6945 35.7 19.0681 34.4 19.0681 32Z" fill="black"/>
<path id="Vector_6" d="M35.3671 23.8999H50.7164V25.4999H38.5319V31.3999H48.0263V32.9999H38.5319V40.3999H35.3671V23.8999Z" fill="black"/>
<path id="Vector_7" d="M55.4637 23.8999H58.6285V40.3999H55.4637V23.8999Z" fill="black"/>
<path id="Vector_8" d="M65.4329 23.8999H73.345C78.4088 23.8999 82.5232 25.1999 82.5232 28.4999V28.5999C82.5232 31.2999 79.6747 32.6999 76.0351 33.0999L84.1056 40.3999H80.6242L72.8703 33.1999H68.9142V40.3999H65.7494L65.4329 23.8999ZM73.5033 31.5999C77.3011 31.5999 79.2 30.5999 79.2 28.4999V28.3999C79.2 26.1999 76.9846 25.3999 73.5033 25.3999H68.5977V31.4999H73.5033V31.5999Z" fill="black"/>
<path id="Vector_9" d="M86.4791 35.4001H89.4857C89.9604 37.4001 91.0681 39.0001 96.4484 39.0001C99.7715 39.0001 102.462 37.7001 102.462 35.9001C102.462 34.1001 101.037 33.2001 96.1319 32.7001C90.5934 32.2001 87.4285 31.1001 87.4285 28.1001C87.4285 25.6001 90.9099 23.6001 95.8154 23.6001C101.037 23.6001 104.361 25.2001 104.835 28.2001H101.987C101.354 26.1001 99.455 25.3001 95.8154 25.3001C92.1758 25.3001 90.4352 26.4001 90.4352 28.0001C90.4352 29.6001 91.3847 30.4001 96.7649 31.0001C102.62 31.6001 105.626 32.7001 105.626 35.8001C105.626 38.6001 101.829 40.7001 96.6066 40.7001C89.4857 40.6001 86.9539 38.2001 86.4791 35.4001Z" fill="black"/>
<path id="Vector_10" d="M115.437 25.4999H107.842V23.8999H126.198V25.4999H118.602V40.3999H115.437V25.4999Z" fill="black"/>
<path id="Vector_11" d="M29.1957 47H37.1078C42.0133 47 45.4946 48 45.4946 51.3V51.4C45.4946 52.9 44.5451 54.2 41.5385 54.9C45.3363 55.5 46.7605 56.7 46.7605 58.9V59C46.7605 62.1 43.4375 63.6 38.2155 63.6H29.1957V47ZM36.9495 54.2C40.7473 54.2 42.1715 53.3 42.1715 51.3V51.2C42.1715 49.3 40.4308 48.6 36.7913 48.6H32.044V54.2H36.9495ZM38.0572 62C41.855 62 43.5957 60.9 43.5957 58.9V58.8C43.5957 56.8 41.855 55.8 37.5825 55.8H32.2022V62H38.0572Z" fill="black"/>
<path id="Vector_12" d="M52.1406 47H55.3055V63.5H52.1406V47Z" fill="black"/>
<path id="Vector_13" d="M67.3318 48.6H59.7362V47H78.0923V48.6H70.4967V63.5H67.3318V48.6Z" fill="black"/>
<path id="Vector_14" d="M82.5232 47H97.7143V48.6H85.688V54.2H95.3407V55.8H85.688V61.8H98.3473V63.4H82.3649V47H82.5232Z" fill="black"/>
</g>
</g>
</svg>
