<svg width="168" height="50" viewBox="0 0 168 50" fill="none" xmlns="http://www.w3.org/2000/svg">
<g id="Group">
<g id="Group_2">
<path id="Vector" d="M0.191223 0.100098H3.03956L4.30552 7.1001L4.93848 11.2001L7.94506 4.4001H10.6352L13.6418 11.2001L14.2747 7.1001L15.3824 0.100098H18.2308L15.6989 12.8001H11.9011L9.05277 6.6001L6.20439 12.8001H2.4066L0.191223 0.100098Z" fill="black"/>
<path id="Vector_2" d="M27.567 11.2001H32.4725V1.7001H27.567V0.100098H40.2264V1.7001H35.3209V11.2001H40.2264V12.8001H27.567V11.2001Z" fill="black"/>
<path id="Vector_3" d="M52.411 0.100098H55.4176V11.2001H65.7033V12.8001H52.5693L52.411 0.100098Z" fill="black"/>
<path id="Vector_4" d="M77.2549 0.100098H83.1099C89.5978 0.100098 91.4967 2.8001 91.4967 6.4001C91.4967 10.1001 89.5978 12.9001 83.1099 12.9001H77.2549V0.100098ZM80.2616 11.2001H83.1099C85.4835 11.2001 86.9077 10.5001 87.5407 9.6001C88.1736 8.7001 88.3319 7.5001 88.3319 6.4001C88.3319 5.9001 88.3319 5.3001 88.1737 4.8001C88.1737 4.2001 87.8571 3.7001 87.5407 3.3001C86.9077 2.4001 85.4835 1.7001 83.1099 1.7001H80.2616V11.2001Z" fill="black"/>
<path id="Vector_5" d="M8.26159 30.8999C3.35609 30.8999 0.665955 29.6999 0.665955 27.3999C0.665955 25.8999 1.93191 24.7999 4.14729 24.3999C2.40663 23.8999 1.14071 22.9999 1.14071 21.4999C1.14071 19.1999 4.1473 17.8999 8.26159 17.8999C11.7429 17.8999 15.0659 18.6999 15.5407 21.5999H12.6923C12.5341 20.7999 12.2176 20.1999 11.4264 19.8999C10.6352 19.5999 9.68573 19.3999 8.41979 19.3999C7.15386 19.3999 6.20442 19.5999 5.41321 19.8999C4.622 20.1999 4.14729 20.6999 4.14729 21.4999C4.14729 22.9999 5.88796 23.5999 9.0528 23.5999H18.7055V25.0999H15.6989V30.8999H8.26159ZM12.5341 29.3999V25.1999H8.73629C7.31212 25.1999 6.0462 25.3999 5.09675 25.6999C4.1473 25.9999 3.67254 26.5999 3.67254 27.3999C3.67254 28.8999 5.72969 29.3999 8.57804 29.3999H12.5341Z" fill="black"/>
<path id="Vector_6" d="M57.3165 25.8001L49.5626 18.1001H52.8857L55.8923 21.1001L58.8989 24.3001L61.9055 21.1001L64.9121 18.1001H68.2352L60.4813 25.8001V30.9001H57.4747V25.8001H57.3165Z" fill="black"/>
<path id="Vector_7" d="M76.7802 26.4002V18.2002H79.7868V26.4002C79.7868 27.5002 80.1033 28.3002 80.7362 28.8002C81.3692 29.2002 82.3187 29.5002 83.7428 29.5002C85.167 29.5002 86.1164 29.3002 86.7494 28.8002C87.3824 28.3002 87.6989 27.5002 87.6989 26.4002V18.2002H90.7054V26.4002C90.7054 28.1002 90.2308 29.3002 88.9648 30.0002C87.8571 30.7002 86.1165 31.1002 83.7428 31.1002C78.9956 31.1002 76.7802 29.8002 76.7802 26.4002Z" fill="black"/>
<path id="Vector_8" d="M100.991 18.2002H104.947L107.163 22.4002L108.429 25.2002L109.695 22.4002L111.91 18.2002H115.708V30.9002H113.018V23.4002L113.334 19.9002L109.378 27.3002H107.163L103.207 19.9002L103.523 23.4002V30.9002H100.833V18.2002H100.991Z" fill="black"/>
<path id="Vector_9" d="M125.835 18.2002H129.791L132.007 22.4002L133.273 25.2002L134.538 22.4002L136.754 18.2002H140.552V30.9002H137.862V23.4002L138.178 19.9002L134.222 27.3002H132.007L128.051 19.9002L128.367 23.4002V30.9002H125.677V18.2002H125.835Z" fill="black"/>
<path id="Vector_10" d="M156.534 25.8001L148.78 18.1001H152.103L155.11 21.1001L158.117 24.3001L161.123 21.1001L164.13 18.1001H167.453L159.699 25.8001V30.9001H156.692V25.8001H156.534Z" fill="black"/>
<path id="Vector_11" d="M2.88129 36.3003H15.8571V37.9003H5.72966V41.7003H14.433V43.3003H5.72966V47.4003H15.8571V49.0003H2.88129V36.3003Z" fill="black"/>
<path id="Vector_12" d="M27.7253 36.3003H31.6813L38.011 47.2003L37.6945 43.5003V36.3003H40.3846V49.0003H36.4286L30.0989 38.1003L30.4154 41.8003V49.0003H27.7253V36.3003Z" fill="black"/>
<path id="Vector_13" d="M51.4615 44.8999C51.4615 44.5999 51.4616 44.2999 51.6198 44.0999H54.4681C54.4681 44.2999 54.3099 44.5999 54.3099 44.8999C54.3099 46.5999 55.5758 47.6999 58.2659 47.6999C61.2725 47.6999 62.3802 46.4999 62.3802 44.1999V36.3999H65.3868V44.2999C65.3868 47.5999 63.0132 49.3999 58.4242 49.3999C53.9934 49.2999 51.4615 47.4999 51.4615 44.8999Z" fill="black"/>
<path id="Vector_14" d="M75.6725 42.7C75.6725 38.6 78.2044 36 83.5846 36C86.2747 36 88.1736 36.6 89.4396 37.8C90.7055 39 91.3385 40.6 91.3385 42.6C91.3385 46.8 88.8066 49.3 83.4264 49.3C78.2044 49.3 75.6725 46.8 75.6725 42.7ZM87.6989 46C88.3319 45 88.4901 43.8 88.4901 42.7C88.4901 40.5 88.0154 37.7 83.5846 37.7C79.1538 37.7 78.8373 40.5 78.8373 42.7C78.8373 44.8 79.3121 47.7 83.5846 47.7C85.8 47.6 87.0659 46.9 87.6989 46Z" fill="black"/>
<path id="Vector_15" d="M107.004 44.0003L99.2506 36.3003H102.574L105.58 39.3003L108.587 42.5003L111.593 39.3003L114.6 36.3003H117.923L110.169 44.0003V49.1003H107.163V44.0003H107.004Z" fill="black"/>
<path id="Vector_16" d="M131.215 46.4999H135.171V48.9999H131.215V46.4999ZM131.69 40.2999V36.3999H134.697V40.3999L133.905 44.6999H132.481L131.69 40.2999Z" fill="black"/>
</g>
</g>
</svg>
