<svg width="200" height="207" viewBox="0 0 200 207" fill="none" xmlns="http://www.w3.org/2000/svg">
<g id="Frame" clip-path="url(#clip0_0_189)">
<g id="Layer 2">
<g id="Layer 1">
<g id="Group">
<path id="Vector" d="M74.3284 109.616C74.1919 109.146 73.9931 108.696 73.7372 108.279C73.4835 107.798 73.3686 107.256 73.4052 106.714C73.4052 106.33 73.5712 106.061 73.1978 105.822C72.9695 105.71 72.7294 105.623 72.4821 105.563L68.6236 104.36C69.1094 106.105 70.0762 107.679 71.4138 108.901C72.2424 110.248 73.1864 111.521 74.235 112.706C74.0688 112.34 73.9771 111.946 73.9654 111.544C73.9446 110.922 74.4217 110.269 74.3284 109.616Z" fill="white"/>
<path id="Vector_2" d="M68.4576 103.075C69.972 103.541 71.4967 103.998 73.0007 104.485C73.5338 104.602 74.0143 104.89 74.3699 105.304C74.764 105.864 74.5358 106.34 74.567 107.014C74.567 108.051 75.5005 108.756 75.5108 109.782C75.5108 110.404 75.1167 110.943 75.1374 111.555C75.2224 112.118 75.451 112.65 75.8013 113.099C77.136 114.924 79.0239 116.269 81.1845 116.935C83.7788 117.753 86.4822 118.172 89.2024 118.179C89.7461 118.223 90.2923 118.131 90.7919 117.912C91.2915 117.693 91.729 117.354 92.0651 116.925C92.5599 116.257 92.9386 115.51 93.1854 114.717C91.8294 113.933 90.6723 112.847 89.804 111.544C88.6008 109.886 87.4909 108.175 86.3396 106.486C85.8633 105.599 85.2664 104.783 84.5659 104.06C83.7825 103.574 82.9126 103.243 82.0039 103.085C81.1175 102.867 80.2161 102.715 79.3071 102.629C78.5499 102.557 77.7824 102.629 77.0356 102.443C76.4592 102.36 75.9319 102.073 75.5508 101.633C75.1696 101.193 74.9602 100.63 74.9611 100.048C74.9611 98.9076 75.6146 97.8606 75.6457 96.7306C75.6457 96.0464 75.21 95.8806 74.8366 95.3726C74.3491 94.7092 74.7122 94.025 74.7225 93.2993C74.6366 92.3758 74.4946 91.4584 74.2973 90.5522C74.2039 89.785 74.1728 88.9972 74.1521 88.2197C74.1521 85.1097 74.5047 81.7613 72.6896 79.0452C72.2643 78.4025 73.3119 77.8012 73.7268 78.444C75.7079 81.3985 75.2827 85.0475 75.3553 88.4166C75.3621 89.2706 75.4314 90.1229 75.5627 90.9668C75.7417 91.7338 75.8596 92.5137 75.9154 93.2993C75.9154 93.7451 75.6353 94.4293 75.9154 94.7817C76.1954 95.1342 76.351 95.1653 76.517 95.4245C76.7651 95.821 76.8846 96.2844 76.8593 96.7514C76.8593 97.8502 76.2473 98.8247 76.185 99.9443C76.0917 101.53 78.0106 101.344 79.1412 101.437C80.9171 101.563 82.6647 101.951 84.3274 102.588C86.0284 103.262 86.8478 104.993 87.8228 106.423C88.7978 107.854 89.8351 109.44 90.9346 110.902C91.7727 112.211 92.9575 113.262 94.3574 113.939C94.4716 114.005 94.5608 114.107 94.6114 114.229C94.662 114.351 94.6712 114.486 94.6375 114.613C93.9737 116.852 92.646 119.195 90.0218 119.402C88.5606 119.449 87.0983 119.355 85.655 119.122C84.3043 118.982 82.9682 118.725 81.6617 118.355C81.2157 118.221 80.7696 118.065 80.334 117.899C82.2901 119.135 84.3774 120.15 86.5574 120.926C94.2848 123.715 103.983 122.378 110.943 118.096C116.892 114.378 121.517 108.878 124.157 102.38H124.022L123.203 102.277C122.95 102.26 122.706 102.178 122.495 102.038C122.284 101.898 122.113 101.705 122 101.479C121.591 100.944 121.302 100.327 121.153 99.6703C121.005 99.0137 121 98.3327 121.139 97.674C121.823 95.5281 124.137 94.6677 125.993 93.7451C126.108 93.6854 126.239 93.6636 126.367 93.6829C126.711 90.3882 126.476 87.0586 125.672 83.845C125.565 81.4811 124.675 79.2199 123.141 77.4177C123.141 77.3348 123.068 77.2622 123.027 77.1896C122.643 76.5158 122.228 75.8938 121.792 75.2718C121.228 74.475 120.611 73.7165 119.946 73.0015C115.423 68.3659 109.364 65.5387 102.904 65.0503C102.904 65.1229 102.967 65.154 102.977 65.2266C102.972 65.2575 102.972 65.2889 102.977 65.3199C102.153 65.0894 101.314 64.9162 100.467 64.8015C99.0563 64.6042 97.6198 64.7138 96.2556 65.1229C92.3149 65.4938 88.4812 66.6126 84.9601 68.4195C81.5716 69.7147 78.491 71.7025 75.9154 74.2559C71.4784 78.729 68.5734 84.4922 67.6175 90.718C67.298 91.7882 67.1304 92.8979 67.1196 94.0146C67.1263 94.6426 67.1748 95.2694 67.2648 95.8909C67.2027 96.546 67.2027 97.2055 67.2648 97.8606C67.3764 99.2513 67.6836 100.619 68.1776 101.924C68.2502 102.308 68.3124 102.702 68.3747 103.075C68.4023 103.073 68.43 103.073 68.4576 103.075ZM110.3 89.5984C110.738 90.534 111.085 91.5095 111.337 92.5114C111.676 93.6299 111.943 94.7692 112.136 95.922C112.483 97.8482 112.452 99.8237 112.042 101.738C111.648 103.386 110.798 105.687 108.982 106.247C107.167 106.807 105.425 105.449 104.356 104.101C103.799 103.323 103.17 102.598 102.479 101.935C101.73 101.37 100.911 100.907 100.041 100.556C98.496 99.8302 96.3178 98.8973 95.9963 97.0209C95.928 96.0544 96.0586 95.0842 96.38 94.1701C96.576 93.3903 96.8687 92.6381 97.2513 91.9309C97.6272 91.2143 98.1898 90.6126 98.8798 90.1893C99.72 89.7228 100.716 89.6814 101.587 89.2771C103.164 88.541 104.699 87.2659 106.503 87.4836C107.059 87.4378 107.619 87.4976 108.153 87.6599C108.628 87.8286 109.065 88.0895 109.438 88.4275C109.812 88.7656 110.115 89.174 110.331 89.6295L110.3 89.5984ZM81.7446 70.6587C81.672 69.9019 82.8856 69.9019 82.9582 70.6587C83.176 72.9186 82.1284 75.0748 82.3255 77.314C82.6025 78.4942 82.9879 79.6463 83.4768 80.7557C83.7449 81.8642 83.9047 82.996 83.954 84.1352C83.9894 85.1567 84.1144 86.173 84.3274 87.1726C84.4311 87.5873 84.597 88.116 85.126 88.0849C85.5312 88.0282 85.9261 87.913 86.2981 87.7428C87.9106 87.1043 89.2172 85.8727 89.9492 84.3011C90.6649 82.7357 90.7167 80.6313 92.5734 79.8849C92.9851 79.7566 93.419 79.7153 93.8475 79.7635C94.276 79.8116 94.6899 79.9483 95.0628 80.1648C95.4618 80.3486 95.9005 80.4296 96.3389 80.4007C96.7773 80.3717 97.2015 80.2336 97.5729 79.999C98.3064 79.5331 99.0764 79.1275 99.8755 78.7861C100.822 78.5132 101.818 78.4565 102.79 78.6202C105.114 78.869 107.427 79.1282 109.75 79.3666C110.789 79.5381 111.853 79.4707 112.862 79.1696C113.581 78.8547 114.247 78.4279 114.832 77.9049C115.955 76.7537 117.309 75.8528 118.805 75.2614C118.951 75.2382 119.1 75.2693 119.225 75.349C119.349 75.4286 119.44 75.5513 119.479 75.6934C119.519 75.8356 119.505 75.9875 119.44 76.12C119.375 76.2525 119.263 76.3565 119.127 76.4121C117.27 76.9512 116.015 78.6202 114.501 79.6569C112.426 81.0356 110.03 80.6002 107.665 80.3514L104.056 79.9575C102.921 79.7432 101.76 79.6978 100.612 79.8227C98.8798 80.1959 97.6144 81.8961 95.7162 81.6058C94.8553 81.4918 93.8907 80.6417 93.0194 80.9631C92.1481 81.2844 91.7229 82.6113 91.4635 83.5029C90.9892 85.2226 89.9612 86.7382 88.5385 87.8154C87.4391 88.6447 85.0223 90.0235 83.788 88.852C83.2572 88.1473 82.9729 87.2876 82.979 86.4055C82.8337 85.3689 82.7922 84.2389 82.6885 83.1608C82.5719 82.0099 82.278 80.8839 81.8172 79.8227C81.3681 78.9001 81.1173 77.8937 81.0808 76.8683C81.0808 74.7327 81.9417 72.7527 81.7446 70.6587Z" fill="white"/>
<path id="Vector_3" d="M122.238 97.7051C121.761 98.7418 122.342 99.8717 122.902 100.815L123.006 100.991H123.203C123.359 100.991 123.525 100.991 123.68 101.054C123.939 101.072 124.195 101.11 124.448 101.168C125.199 99.1274 125.738 97.0153 126.055 94.8647C125.402 95.186 124.748 95.5074 124.116 95.9013C123.305 96.2753 122.644 96.9106 122.238 97.7051Z" fill="white"/>
<path id="Vector_4" d="M106.835 88.6965C106.753 88.7127 106.669 88.7127 106.586 88.6965H106.472C106.047 88.6965 105.611 88.8002 105.197 88.8624H105.051C103.941 89.2252 102.977 90.0235 101.877 90.4692C101.02 90.6869 100.181 90.9711 99.3673 91.3193C98.7525 91.7532 98.2797 92.3591 98.0085 93.0609C97.733 93.7306 97.5212 94.4248 97.3758 95.1342C97.2103 95.5251 97.1463 95.9516 97.1898 96.3739C97.2334 96.7961 97.383 97.2006 97.6247 97.5496C98.662 98.7625 100.415 99.2497 101.774 99.9754C102.508 100.347 103.182 100.826 103.776 101.396C104.311 101.985 104.817 102.601 105.29 103.241C106.14 104.278 107.831 105.926 109.263 104.775C109.897 104.153 110.362 103.379 110.611 102.526C110.891 101.766 111.079 100.976 111.171 100.172C111.325 98.4722 111.213 96.7584 110.839 95.0927C110.548 93.4484 110.053 91.8466 109.366 90.3241C109.214 89.9481 108.981 89.6103 108.683 89.3344C108.386 89.0585 108.031 88.8514 107.644 88.7276C107.377 88.687 107.105 88.6765 106.835 88.6965Z" fill="white"/>
<path id="Vector_5" d="M133.907 86.9446C133.703 85.1191 133.402 83.3058 133.005 81.5125C132.912 81.0149 132.86 80.3929 132.725 79.8538C132.59 79.3148 132.331 78.5165 132.092 77.8634C131.027 74.8789 129.636 72.0211 127.943 69.3421C127.788 69.1037 127.622 68.8549 127.445 68.6268C128.669 67.2446 129.883 65.8313 131.086 64.3869C131.822 63.5161 130.63 62.3136 129.789 63.1118C126.463 66.3807 123.144 69.6531 119.832 72.929C120.492 73.6482 121.109 74.4064 121.678 75.1992C123.099 73.6131 124.51 72.0063 125.91 70.4099C126.522 71.5191 127.134 72.6387 127.715 73.7686C127.745 73.8453 127.783 73.9183 127.829 73.9863C127.952 74.1717 128.125 74.3189 128.327 74.4114C128.607 74.9815 128.887 75.5517 129.146 76.1322C129.747 77.4434 130.246 78.7985 130.64 80.1856C130.713 80.4344 130.775 80.6935 130.827 80.9527L130.889 81.2844C130.889 81.2844 130.889 81.471 130.889 81.5229C130.972 82.4144 131.273 83.3059 131.428 84.1974C132.593 91.1683 131.669 98.3278 128.773 104.775C125.912 111.355 121.324 117.039 115.496 121.227C113.155 122.919 110.546 124.209 107.779 125.042C102.834 126.478 97.6465 126.885 92.5372 126.24C87.428 125.595 82.5053 123.91 78.0728 121.289C77.5957 120.978 77.1186 120.657 76.6622 120.325C77.6994 119.433 78.6641 118.532 79.6598 117.63C78.7871 117.249 77.9592 116.772 77.1912 116.209C74.6914 118.811 72.1813 121.393 69.692 124.005C69.5991 124.079 69.524 124.173 69.4725 124.279C69.4209 124.386 69.3941 124.503 69.3941 124.622C69.3941 124.741 69.4209 124.858 69.4725 124.964C69.524 125.071 69.5991 125.165 69.692 125.239C69.7728 125.331 69.8724 125.405 69.9842 125.456C70.096 125.507 70.2174 125.533 70.3402 125.533C70.463 125.533 70.5844 125.507 70.6962 125.456C70.808 125.405 70.9077 125.331 70.9885 125.239L75.0648 121.683C81.0796 125.968 88.2388 128.358 95.6229 128.546C96.7535 128.546 97.9048 128.546 99.0665 128.546C99.1019 133.719 99.5808 138.88 100.498 143.971C96.2936 144.172 92.0997 144.465 87.9162 144.852H87.854H87.7502H87.6776C87.6297 144.874 87.5872 144.906 87.5532 144.946C87.4798 145.035 87.4397 145.146 87.4397 145.262C87.4397 145.377 87.4798 145.489 87.5532 145.578C87.5869 145.631 87.6326 145.676 87.6866 145.708C87.7407 145.741 87.8015 145.76 87.8643 145.765C97.1822 147.562 106.792 147.15 115.922 144.562C116.059 144.544 116.184 144.472 116.269 144.363C116.353 144.253 116.391 144.114 116.373 143.976C116.355 143.839 116.283 143.714 116.173 143.63C116.063 143.545 115.924 143.508 115.787 143.525C111.396 143.484 107.012 143.553 102.635 143.733C102.682 143.614 102.706 143.487 102.707 143.36C102.769 138.29 102.707 133.211 102.365 128.152C106.533 127.734 110.569 126.46 114.221 124.409C120.618 120.554 125.845 115.032 129.343 108.435C132.886 101.853 134.47 94.3964 133.907 86.9446Z" fill="white"/>
</g>
</g>
</g>
</g>
<defs>
<clipPath id="clip0_0_189">
<rect width="200" height="207" fill="white"/>
</clipPath>
</defs>
</svg>
